<?xml version="1.0" encoding="utf-8"?>
<!-- Generator: Adobe Illustrator 15.0.0, SVG Export Plug-In . SVG Version: 6.00 Build 0)  -->
<!DOCTYPE svg PUBLIC "-//W3C//DTD SVG 1.1//EN" "http://www.w3.org/Graphics/SVG/1.1/DTD/svg11.dtd">
<svg version="1.1" id="Layer_1" xmlns="http://www.w3.org/2000/svg" xmlns:xlink="http://www.w3.org/1999/xlink" x="0px" y="0px"
	 width="555.971px" height="179.868px" viewBox="27.874 306.866 555.971 179.868"
	 enable-background="new 27.874 306.866 555.971 179.868" xml:space="preserve">
<g id="Layer_1_1_">
	<path fill="#51A9F3" d="M493.816,486.733H117.807c-49.859,0-89.934-40.075-89.934-89.934l0,0c0-49.859,40.075-89.934,89.934-89.934
		h376.104c49.858,0,89.934,40.075,89.934,89.934l0,0C583.75,446.658,543.675,486.733,493.816,486.733z"/>
</g>
<g>
	<g id="形状_11_拷贝_5_" opacity="0.502">
		<g>
			<path fill="#B2B2B2" d="M143.865,433.864c-6.585-0.282-12.512,0.847-16.369,2.822c-3.857-1.976-9.689-3.104-16.274-2.822
				c-11.195,0.471-20.038,4.892-19.85,9.878c0.282,4.985,9.596,8.561,20.79,8.09c2.634-0.094,5.174-0.47,7.432-0.94
				c0.094,0,0.282-0.094,0.376-0.094c2.446-0.471,5.457-1.035,7.62-1.035c1.881,0,3.951,0.282,5.926,0.658
				c2.729,0.753,5.927,1.224,9.313,1.411c11.289,0.471,20.602-3.104,20.884-8.09C164.091,438.756,155.154,434.335,143.865,433.864z"
				/>
		</g>
	</g>
	<g id="形状_11_拷贝_副本_2_">
		<g>
			<path fill="#DB7804" d="M145.747,433.018c-2.822-0.094-5.55,0.094-7.902,0.564h12.512
				C148.851,433.206,147.346,433.018,145.747,433.018z M109.623,433.018c-1.599,0.094-3.104,0.282-4.515,0.564h12.512
				C115.079,433.018,112.445,432.829,109.623,433.018z M162.962,441.578H92.407c0,0.282-0.094,0.564-0.094,0.847
				c0.188,4.704,8.278,8.185,18.062,7.714c7.337-0.376,13.546-2.822,16.086-6.114c0.47-0.095,0.847-0.188,1.317-0.188
				c0.376,0,0.659,0,1.035,0.094c2.446,3.293,8.655,5.739,16.086,6.115c9.784,0.471,17.874-3.011,18.062-7.714
				C162.962,442.143,162.962,441.86,162.962,441.578z"/>
		</g>
	</g>
	<ellipse fill="#FCBB19" cx="146.029" cy="441.202" rx="16.839" ry="8.373"/>
	<ellipse fill="#FCBB19" cx="109.247" cy="441.202" rx="16.839" ry="8.373"/>
</g>
<g id="形状_6_5_">
	<g>
		<path fill="#1C1C20" d="M161.551,389.838c-0.376,0.94-0.659,1.976-0.847,2.916c-5.645-13.358-18.533-22.671-33.49-22.671
			c-14.487,0-26.999,8.749-32.925,21.448c-0.188-0.564-0.376-1.128-0.564-1.693c0,0-17.686,18.532-9.596,36.218
			c1.223,2.54,5.08-0.847,7.996-7.15c4.61,15.24,18.909,24.365,35.466,24.365c17.027,0,31.044-9.689,34.995-25.494
			c3.01,7.15,7.244,11.007,8.561,8.279C179.143,408.183,161.551,389.838,161.551,389.838z"/>
	</g>
</g>
<ellipse fill="#FFFFFF" cx="127.873" cy="412.04" rx="28.974" ry="29.351"/>
<g id="椭圆_1_5_">
	<g>
		<path fill="#D51B05" d="M160.328,383.253c-1.035,0-1.881,0.376-1.881,0.941c0,0.47,1.035,3.104,2.069,3.104
			c1.035,0,1.788-2.54,1.788-3.104C162.209,383.724,161.363,383.253,160.328,383.253z"/>
	</g>
</g>
<g id="椭圆_1_副本_5_">
	<g>
		<path fill="#F02D0D" d="M94.947,383.441c-1.035,0-1.881,0.47-1.881,1.035s0.847,3.198,1.881,3.198c1.035,0,1.882-2.54,1.882-3.198
			C96.829,383.912,95.982,383.441,94.947,383.441z"/>
	</g>
</g>
<g id="形状_7__x2B__形状_13_xA0_Clipping_Path_5_">
	<g>
		<path fill="#1C1C20" d="M127.591,344.307c-19.003,0-34.337,14.958-34.337,35.748c0,19.097,5.927,23.612,34.431,23.612
			c28.504,0,33.867-4.798,34.431-23.8C162.68,361.146,146.593,344.307,127.591,344.307z"/>
	</g>
</g>
<g id="形状_10_5_">
	<g>
		<path fill="#FDBD1A" d="M143.959,380.807c-4.704-1.505-9.972-2.352-15.522-2.258c-6.021,0.094-10.16,0.188-17.404,2.728
			c-10.536,3.763-6.397,5.833-1.129,8.467c5.362,2.728,10.254,8.372,17.686,8.372c8.09,0,9.031-2.634,16.933-7.055
			C156.941,383.912,151.861,383.347,143.959,380.807z"/>
	</g>
</g>
<g id="形状_11_拷贝_3__x2B__椭圆_2_拷贝_xA0_Clipping_Path_5_">
	<g>
		<path fill="#8B2F01" d="M127.685,391.625c-10.536,0-15.898-4.892-17.215-6.021c0,0,2.258,3.575,8.185,6.021
			c3.104,1.317,4.421,4.328,9.031,4.328c4.61,0,5.927-3.011,9.031-4.328c6.021-2.54,8.184-6.021,8.184-6.021
			C143.583,386.734,138.221,391.625,127.685,391.625z"/>
	</g>
</g>
<g id="形状_21_4_">
	<g>
		<ellipse fill="#FFFFFF" cx="136.246" cy="370.083" rx="6.021" ry="8.655"/>
	</g>
</g>
<g id="形状_18_副本_4_">
	<g>
		<path fill="#191919" d="M135.399,365.755c-2.07,0-3.481,2.352-3.481,5.833v0.188c0,0.47,0.376,0.847,0.847,0.847
			s0.847-0.376,0.847-0.847v-0.188c0-2.258,0.847-4.045,1.788-4.045c1.035,0,1.787,1.787,1.787,4.045v0.188
			c0,0.47,0.376,0.847,0.847,0.847s0.847-0.376,0.847-0.847v-0.188C138.879,368.201,137.468,365.755,135.399,365.755z"/>
	</g>
</g>
<g id="形状_20_4_">
	<g>
		<path fill="#FFFFFF" d="M125.051,369.801c-0.188-4.798-3.01-8.467-6.397-8.373c-3.292,0.188-5.927,4.139-5.738,8.843
			c0.188,4.704,3.01,8.467,6.397,8.373C122.699,378.549,125.239,374.599,125.051,369.801z"/>
	</g>
</g>
<g id="形状_15_副本_4_">
	<g>
		<path fill="#191919" d="M123.357,370.083c-0.188-2.634-1.693-4.516-3.292-4.233c-1.693,0.282-2.917,2.54-2.728,5.174
			c0.188,2.634,1.693,4.516,3.292,4.233C122.323,374.975,123.545,372.623,123.357,370.083z"/>
	</g>
</g>
<g id="形状_16_副本_4_">
	<g>
		<path fill="#FFFFFF" d="M120.912,368.107c-0.659,0.094-1.223,0.94-1.129,1.881c0,1.035,0.564,1.788,1.223,1.693
			c0.659-0.094,1.223-0.941,1.129-1.881C122.134,368.86,121.57,368.107,120.912,368.107z"/>
	</g>
</g>
<g id="形状_17_副本_4_" opacity="0.502">
	<g>
		<path fill="#FFFFFF" d="M119.5,371.87c-0.094-0.094-0.282-0.188-0.47-0.188c-0.188,0-0.282,0.094-0.376,0.188
			c-0.188,0.188-0.188,0.564,0.094,0.847c0.094,0.094,0.282,0.188,0.47,0.188s0.282-0.094,0.376-0.188
			C119.783,372.529,119.783,372.152,119.5,371.87z"/>
	</g>
</g>
<path fill="#E93115" d="M104.449,403.667l-0.847,14.958c0,0-0.094,2.069,2.07,2.916c2.164,0.847,8.184,1.976,9.219,1.693
	c1.035-0.188,2.352-0.471,2.446-1.788c0.094-1.411-0.188-14.487-0.188-14.487L104.449,403.667z"/>
<polygon fill="#C2280D" points="104.167,403.479 117.337,416.649 117.243,406.113 "/>
<path fill="#E93115" d="M93.066,384.476c0,0,6.021,14.864,34.807,14.864c0,0,22.201,0.752,34.336-15.146l2.822,9.689
	c0,0-8.655,15.522-37.347,15.522c0,0-23.8,0-37.629-15.146L93.066,384.476z"/>
</svg>
