<?xml version="1.0" encoding="utf-8"?>
<!-- Generator: Adobe Illustrator 15.0.0, SVG Export Plug-In . SVG Version: 6.00 Build 0)  -->
<!DOCTYPE svg PUBLIC "-//W3C//DTD SVG 1.1//EN" "http://www.w3.org/Graphics/SVG/1.1/DTD/svg11.dtd">
<svg version="1.1" id="Layer_1" xmlns="http://www.w3.org/2000/svg" xmlns:xlink="http://www.w3.org/1999/xlink" x="0px" y="0px"
	 width="555.496px" height="179.868px" viewBox="27.591 304.608 555.496 179.868"
	 enable-background="new 27.591 304.608 555.496 179.868" xml:space="preserve">
<path fill="#FFB33B" d="M493.534,484.476H117.525c-49.859,0-89.934-40.075-89.934-89.934l0,0c0-49.859,40.075-89.934,89.934-89.934
	h376.104c49.858,0,89.934,40.075,89.934,89.934l0,0C583.468,444.4,543.393,484.476,493.534,484.476z"/>
<path fill="#FFFFFF" d="M83.564,410.252c0,14.77,19.191,26.717,42.897,26.717c23.706,0,42.897-11.947,42.897-26.717
	s-19.191-26.717-42.897-26.717C102.755,383.535,83.564,395.482,83.564,410.252"/>
<path fill="#E6162D" d="M127.497,434.805c-20.978,2.07-39.134-7.432-40.451-21.166c-1.317-13.734,14.581-26.623,35.56-28.692
	c20.978-2.069,39.134,7.432,40.451,21.167C164.373,419.941,148.475,432.735,127.497,434.805 M169.453,389.085
	c-1.787-0.564-3.01-0.94-2.069-3.198c2.069-5.08,2.257-9.501,0-12.606c-4.14-5.833-15.334-5.55-28.316-0.188
	c0,0-4.045,1.788-3.01-1.411c1.976-6.397,1.693-11.759-1.411-14.77c-6.961-6.961-25.588,0.282-41.58,16.181
	c-11.947,11.947-18.909,24.647-18.909,35.559c0,20.979,26.905,33.679,53.151,33.679c34.431,0,57.384-20.038,57.384-35.937
	C184.787,396.8,176.697,391.343,169.453,389.085"/>
<path fill="#FF9933" d="M192.313,350.704c-8.278-9.219-20.602-12.7-31.891-10.348l0,0c-2.634,0.564-4.328,3.104-3.763,5.738
	c0.564,2.634,3.104,4.328,5.738,3.763c8.09-1.693,16.745,0.752,22.672,7.337s7.526,15.522,4.986,23.33l0,0
	c-0.847,2.54,0.564,5.268,3.104,6.115s5.268-0.564,6.115-3.104l0,0C202.943,372.529,200.686,359.923,192.313,350.704"/>
<path fill="#FF9933" d="M179.519,362.275c-4.045-4.516-10.066-6.209-15.522-4.986c-2.258,0.47-3.669,2.728-3.199,4.986
	c0.471,2.258,2.728,3.669,4.986,3.198l0,0c2.728-0.564,5.645,0.282,7.62,2.446c1.976,2.164,2.54,5.174,1.693,7.808l0,0
	c-0.753,2.164,0.47,4.516,2.728,5.268c2.164,0.659,4.516-0.47,5.268-2.728C184.693,372.905,183.658,366.791,179.519,362.275"/>
<path d="M128.625,409.876c-0.752,1.223-2.352,1.881-3.669,1.316c-1.223-0.47-1.599-1.881-0.94-3.104
	c0.752-1.223,2.257-1.787,3.575-1.316C128.908,407.242,129.378,408.652,128.625,409.876 M121.946,418.437
	c-2.069,3.198-6.397,4.609-9.689,3.198c-3.199-1.505-4.139-5.268-2.164-8.372s6.208-4.516,9.501-3.199
	C122.887,411.475,123.922,415.144,121.946,418.437 M129.566,395.577c-9.972-2.634-21.261,2.352-25.588,11.101
	c-4.421,8.937-0.188,18.908,9.972,22.201c10.442,3.386,22.766-1.788,27.093-11.478C145.182,407.994,139.914,398.211,129.566,395.577
	"/>
</svg>
